<svg width="102" height="36" viewBox="0 0 102 36" fill="none" xmlns="http://www.w3.org/2000/svg">
<path d="M5.416 27.44C6.008 27.44 6.52533 27.5547 6.968 27.784C7.416 28.008 7.76 28.3333 8 28.76C8.24533 29.1813 8.368 29.6747 8.368 30.24C8.368 30.8053 8.24533 31.296 8 31.712C7.76 32.128 7.416 32.448 6.968 32.672C6.52533 32.8907 6.008 33 5.416 33H3.6V27.44H5.416ZM5.416 32.256C6.06667 32.256 6.56533 32.08 6.912 31.728C7.25867 31.376 7.432 30.88 7.432 30.24C7.432 29.5947 7.25867 29.0907 6.912 28.728C6.56533 28.3653 6.06667 28.184 5.416 28.184H4.512V32.256H5.416ZM9.73588 28.008C9.57054 28.008 9.43188 27.952 9.31988 27.84C9.20788 27.728 9.15188 27.5893 9.15188 27.424C9.15188 27.2587 9.20788 27.12 9.31988 27.008C9.43188 26.896 9.57054 26.84 9.73588 26.84C9.89588 26.84 10.0319 26.896 10.1439 27.008C10.2559 27.12 10.3119 27.2587 10.3119 27.424C10.3119 27.5893 10.2559 27.728 10.1439 27.84C10.0319 27.952 9.89588 28.008 9.73588 28.008ZM10.1839 28.592V33H9.27188V28.592H10.1839ZM13.1573 28.52C13.4986 28.52 13.7999 28.5893 14.0613 28.728C14.3279 28.8613 14.5359 29.0293 14.6853 29.232V28.592H15.6053V33.072C15.6053 33.4773 15.5199 33.8373 15.3493 34.152C15.1786 34.472 14.9306 34.7227 14.6053 34.904C14.2853 35.0853 13.9013 35.176 13.4533 35.176C12.8559 35.176 12.3599 35.0347 11.9653 34.752C11.5706 34.4747 11.3466 34.096 11.2933 33.616H12.1973C12.2666 33.8453 12.4133 34.0293 12.6373 34.168C12.8666 34.312 13.1386 34.384 13.4533 34.384C13.8213 34.384 14.1173 34.272 14.3413 34.048C14.5706 33.824 14.6853 33.4987 14.6853 33.072V32.336C14.5306 32.544 14.3199 32.72 14.0533 32.864C13.7919 33.0027 13.4933 33.072 13.1573 33.072C12.7733 33.072 12.4213 32.976 12.1013 32.784C11.7866 32.5867 11.5359 32.3147 11.3493 31.968C11.1679 31.616 11.0773 31.2187 11.0773 30.776C11.0773 30.3333 11.1679 29.9413 11.3493 29.6C11.5359 29.2587 11.7866 28.9947 12.1013 28.808C12.4213 28.616 12.7733 28.52 13.1573 28.52ZM14.6853 30.792C14.6853 30.488 14.6213 30.224 14.4933 30C14.3706 29.776 14.2079 29.6053 14.0053 29.488C13.8026 29.3707 13.5839 29.312 13.3493 29.312C13.1146 29.312 12.8959 29.3707 12.6933 29.488C12.4906 29.6 12.3253 29.768 12.1973 29.992C12.0746 30.2107 12.0133 30.472 12.0133 30.776C12.0133 31.08 12.0746 31.3467 12.1973 31.576C12.3253 31.8053 12.4906 31.9813 12.6933 32.104C12.9013 32.2213 13.1199 32.28 13.3493 32.28C13.5839 32.28 13.8026 32.2213 14.0053 32.104C14.2079 31.9867 14.3706 31.816 14.4933 31.592C14.6213 31.3627 14.6853 31.096 14.6853 30.792ZM17.2671 28.008C17.1018 28.008 16.9631 27.952 16.8511 27.84C16.7391 27.728 16.6831 27.5893 16.6831 27.424C16.6831 27.2587 16.7391 27.12 16.8511 27.008C16.9631 26.896 17.1018 26.84 17.2671 26.84C17.4271 26.84 17.5631 26.896 17.6751 27.008C17.7871 27.12 17.8431 27.2587 17.8431 27.424C17.8431 27.5893 17.7871 27.728 17.6751 27.84C17.5631 27.952 17.4271 28.008 17.2671 28.008ZM17.7151 28.592V33H16.8031V28.592H17.7151ZM19.9765 29.336V31.776C19.9765 31.9413 20.0138 32.0613 20.0885 32.136C20.1685 32.2053 20.3018 32.24 20.4885 32.24H21.0485V33H20.3285C19.9178 33 19.6032 32.904 19.3845 32.712C19.1658 32.52 19.0565 32.208 19.0565 31.776V29.336H18.5365V28.592H19.0565V27.496H19.9765V28.592H21.0485V29.336H19.9765ZM21.5851 30.776C21.5851 30.3333 21.6757 29.9413 21.8571 29.6C22.0437 29.2587 22.2944 28.9947 22.6091 28.808C22.9291 28.616 23.2811 28.52 23.6651 28.52C24.0117 28.52 24.3131 28.5893 24.5691 28.728C24.8304 28.8613 25.0384 29.0293 25.1931 29.232V28.592H26.1131V33H25.1931V32.344C25.0384 32.552 24.8277 32.7253 24.5611 32.864C24.2944 33.0027 23.9904 33.072 23.6491 33.072C23.2704 33.072 22.9237 32.976 22.6091 32.784C22.2944 32.5867 22.0437 32.3147 21.8571 31.968C21.6757 31.616 21.5851 31.2187 21.5851 30.776ZM25.1931 30.792C25.1931 30.488 25.1291 30.224 25.0011 30C24.8784 29.776 24.7157 29.6053 24.5131 29.488C24.3104 29.3707 24.0917 29.312 23.8571 29.312C23.6224 29.312 23.4037 29.3707 23.2011 29.488C22.9984 29.6 22.8331 29.768 22.7051 29.992C22.5824 30.2107 22.5211 30.472 22.5211 30.776C22.5211 31.08 22.5824 31.3467 22.7051 31.576C22.8331 31.8053 22.9984 31.9813 23.2011 32.104C23.4091 32.2213 23.6277 32.28 23.8571 32.28C24.0917 32.28 24.3104 32.2213 24.5131 32.104C24.7157 31.9867 24.8784 31.816 25.0011 31.592C25.1291 31.3627 25.1931 31.096 25.1931 30.792ZM28.2229 27.08V33H27.3109V27.08H28.2229ZM35.9384 27.44V33H35.0264V30.568H32.4104V33H31.4984V27.44H32.4104V29.824H35.0264V27.44H35.9384ZM39.0511 33.072C38.6351 33.072 38.2591 32.9787 37.9231 32.792C37.5871 32.6 37.3231 32.3333 37.1311 31.992C36.9391 31.6453 36.8431 31.2453 36.8431 30.792C36.8431 30.344 36.9417 29.9467 37.1391 29.6C37.3364 29.2533 37.6057 28.9867 37.9471 28.8C38.2884 28.6133 38.6697 28.52 39.0911 28.52C39.5124 28.52 39.8937 28.6133 40.2351 28.8C40.5764 28.9867 40.8457 29.2533 41.0431 29.6C41.2404 29.9467 41.3391 30.344 41.3391 30.792C41.3391 31.24 41.2377 31.6373 41.0351 31.984C40.8324 32.3307 40.5551 32.6 40.2031 32.792C39.8564 32.9787 39.4724 33.072 39.0511 33.072ZM39.0511 32.28C39.2857 32.28 39.5044 32.224 39.7071 32.112C39.9151 32 40.0831 31.832 40.2111 31.608C40.3391 31.384 40.4031 31.112 40.4031 30.792C40.4031 30.472 40.3417 30.2027 40.2191 29.984C40.0964 29.76 39.9337 29.592 39.7311 29.48C39.5284 29.368 39.3097 29.312 39.0751 29.312C38.8404 29.312 38.6217 29.368 38.4191 29.48C38.2217 29.592 38.0644 29.76 37.9471 29.984C37.8297 30.2027 37.7711 30.472 37.7711 30.792C37.7711 31.2667 37.8911 31.6347 38.1311 31.896C38.3764 32.152 38.6831 32.28 39.0511 32.28ZM41.9366 30.776C41.9366 30.3333 42.0273 29.9413 42.2086 29.6C42.3953 29.2587 42.646 28.9947 42.9606 28.808C43.2806 28.616 43.6326 28.52 44.0166 28.52C44.3633 28.52 44.6646 28.5893 44.9206 28.728C45.182 28.8613 45.39 29.0293 45.5446 29.232V28.592H46.4646V33H45.5446V32.344C45.39 32.552 45.1793 32.7253 44.9126 32.864C44.646 33.0027 44.342 33.072 44.0006 33.072C43.622 33.072 43.2753 32.976 42.9606 32.784C42.646 32.5867 42.3953 32.3147 42.2086 31.968C42.0273 31.616 41.9366 31.2187 41.9366 30.776ZM45.5446 30.792C45.5446 30.488 45.4806 30.224 45.3526 30C45.23 29.776 45.0673 29.6053 44.8646 29.488C44.662 29.3707 44.4433 29.312 44.2086 29.312C43.974 29.312 43.7553 29.3707 43.5526 29.488C43.35 29.6 43.1846 29.768 43.0566 29.992C42.934 30.2107 42.8726 30.472 42.8726 30.776C42.8726 31.08 42.934 31.3467 43.0566 31.576C43.1846 31.8053 43.35 31.9813 43.5526 32.104C43.7606 32.2213 43.9793 32.28 44.2086 32.28C44.4433 32.28 44.662 32.2213 44.8646 32.104C45.0673 31.9867 45.23 31.816 45.3526 31.592C45.4806 31.3627 45.5446 31.096 45.5446 30.792ZM48.5745 29.232C48.7078 29.008 48.8838 28.8347 49.1025 28.712C49.3265 28.584 49.5905 28.52 49.8945 28.52V29.464H49.6625C49.3052 29.464 49.0332 29.5547 48.8465 29.736C48.6652 29.9173 48.5745 30.232 48.5745 30.68V33H47.6625V28.592H48.5745V29.232ZM50.4288 30.776C50.4288 30.3333 50.5195 29.9413 50.7008 29.6C50.8875 29.2587 51.1381 28.9947 51.4528 28.808C51.7728 28.616 52.1275 28.52 52.5168 28.52C52.8048 28.52 53.0875 28.584 53.3648 28.712C53.6475 28.8347 53.8715 29 54.0368 29.208V27.08H54.9568V33H54.0368V32.336C53.8875 32.5493 53.6795 32.7253 53.4128 32.864C53.1515 33.0027 52.8501 33.072 52.5088 33.072C52.1248 33.072 51.7728 32.976 51.4528 32.784C51.1381 32.5867 50.8875 32.3147 50.7008 31.968C50.5195 31.616 50.4288 31.2187 50.4288 30.776ZM54.0368 30.792C54.0368 30.488 53.9728 30.224 53.8448 30C53.7221 29.776 53.5595 29.6053 53.3568 29.488C53.1541 29.3707 52.9355 29.312 52.7008 29.312C52.4661 29.312 52.2475 29.3707 52.0448 29.488C51.8421 29.6 51.6768 29.768 51.5488 29.992C51.4261 30.2107 51.3648 30.472 51.3648 30.776C51.3648 31.08 51.4261 31.3467 51.5488 31.576C51.6768 31.8053 51.8421 31.9813 52.0448 32.104C52.2528 32.2213 52.4715 32.28 52.7008 32.28C52.9355 32.28 53.1541 32.2213 53.3568 32.104C53.5595 31.9867 53.7221 31.816 53.8448 31.592C53.9728 31.3627 54.0368 31.096 54.0368 30.792ZM56.6187 28.008C56.4534 28.008 56.3147 27.952 56.2027 27.84C56.0907 27.728 56.0347 27.5893 56.0347 27.424C56.0347 27.2587 56.0907 27.12 56.2027 27.008C56.3147 26.896 56.4534 26.84 56.6187 26.84C56.7787 26.84 56.9147 26.896 57.0267 27.008C57.1387 27.12 57.1947 27.2587 57.1947 27.424C57.1947 27.5893 57.1387 27.728 57.0267 27.84C56.9147 27.952 56.7787 28.008 56.6187 28.008ZM57.0667 28.592V33H56.1547V28.592H57.0667ZM60.4881 28.52C60.8347 28.52 61.1441 28.592 61.4161 28.736C61.6934 28.88 61.9094 29.0933 62.0641 29.376C62.2187 29.6587 62.2961 30 62.2961 30.4V33H61.3921V30.536C61.3921 30.1413 61.2934 29.84 61.0961 29.632C60.8987 29.4187 60.6294 29.312 60.2881 29.312C59.9467 29.312 59.6747 29.4187 59.4721 29.632C59.2747 29.84 59.1761 30.1413 59.1761 30.536V33H58.2641V28.592H59.1761V29.096C59.3254 28.9147 59.5147 28.7733 59.7441 28.672C59.9787 28.5707 60.2267 28.52 60.4881 28.52ZM65.2354 28.52C65.5767 28.52 65.878 28.5893 66.1394 28.728C66.406 28.8613 66.614 29.0293 66.7634 29.232V28.592H67.6834V33.072C67.6834 33.4773 67.598 33.8373 67.4274 34.152C67.2567 34.472 67.0087 34.7227 66.6834 34.904C66.3634 35.0853 65.9794 35.176 65.5314 35.176C64.934 35.176 64.438 35.0347 64.0434 34.752C63.6487 34.4747 63.4247 34.096 63.3714 33.616H64.2754C64.3447 33.8453 64.4914 34.0293 64.7154 34.168C64.9447 34.312 65.2167 34.384 65.5314 34.384C65.8994 34.384 66.1954 34.272 66.4194 34.048C66.6487 33.824 66.7634 33.4987 66.7634 33.072V32.336C66.6087 32.544 66.398 32.72 66.1314 32.864C65.87 33.0027 65.5714 33.072 65.2354 33.072C64.8514 33.072 64.4994 32.976 64.1794 32.784C63.8647 32.5867 63.614 32.3147 63.4274 31.968C63.246 31.616 63.1554 31.2187 63.1554 30.776C63.1554 30.3333 63.246 29.9413 63.4274 29.6C63.614 29.2587 63.8647 28.9947 64.1794 28.808C64.4994 28.616 64.8514 28.52 65.2354 28.52ZM66.7634 30.792C66.7634 30.488 66.6994 30.224 66.5714 30C66.4487 29.776 66.286 29.6053 66.0834 29.488C65.8807 29.3707 65.662 29.312 65.4274 29.312C65.1927 29.312 64.974 29.3707 64.7714 29.488C64.5687 29.6 64.4034 29.768 64.2754 29.992C64.1527 30.2107 64.0914 30.472 64.0914 30.776C64.0914 31.08 64.1527 31.3467 64.2754 31.576C64.4034 31.8053 64.5687 31.9813 64.7714 32.104C64.9794 32.2213 65.198 32.28 65.4274 32.28C65.662 32.28 65.8807 32.2213 66.0834 32.104C66.286 31.9867 66.4487 31.816 66.5714 31.592C66.6994 31.3627 66.7634 31.096 66.7634 30.792ZM72.7914 33.056C72.418 33.056 72.082 32.992 71.7834 32.864C71.4847 32.7307 71.25 32.544 71.0794 32.304C70.9087 32.064 70.8234 31.784 70.8234 31.464H71.7994C71.8207 31.704 71.914 31.9013 72.0794 32.056C72.25 32.2107 72.4874 32.288 72.7914 32.288C73.106 32.288 73.3514 32.2133 73.5274 32.064C73.7034 31.9093 73.7914 31.712 73.7914 31.472C73.7914 31.2853 73.7354 31.1333 73.6234 31.016C73.5167 30.8987 73.3807 30.808 73.2154 30.744C73.0554 30.68 72.8314 30.6107 72.5434 30.536C72.1807 30.44 71.8847 30.344 71.6554 30.248C71.4314 30.1467 71.2394 29.992 71.0794 29.784C70.9194 29.576 70.8394 29.2987 70.8394 28.952C70.8394 28.632 70.9194 28.352 71.0794 28.112C71.2394 27.872 71.4634 27.688 71.7514 27.56C72.0394 27.432 72.3727 27.368 72.7514 27.368C73.29 27.368 73.73 27.504 74.0714 27.776C74.418 28.0427 74.61 28.4107 74.6474 28.88H73.6394C73.6234 28.6773 73.5274 28.504 73.3514 28.36C73.1754 28.216 72.9434 28.144 72.6554 28.144C72.394 28.144 72.1807 28.2107 72.0154 28.344C71.85 28.4773 71.7674 28.6693 71.7674 28.92C71.7674 29.0907 71.818 29.232 71.9194 29.344C72.026 29.4507 72.1594 29.536 72.3194 29.6C72.4794 29.664 72.698 29.7333 72.9754 29.808C73.3434 29.9093 73.642 30.0107 73.8714 30.112C74.106 30.2133 74.3034 30.3707 74.4634 30.584C74.6287 30.792 74.7114 31.072 74.7114 31.424C74.7114 31.7067 74.634 31.9733 74.4794 32.224C74.33 32.4747 74.1087 32.6773 73.8154 32.832C73.5274 32.9813 73.186 33.056 72.7914 33.056ZM79.7555 28.592L77.0515 35.072H76.1075L77.0035 32.928L75.2675 28.592H76.2835L77.5235 31.952L78.8115 28.592H79.7555ZM82.0438 33.072C81.6971 33.072 81.3851 33.0107 81.1078 32.888C80.8358 32.76 80.6198 32.5893 80.4598 32.376C80.2998 32.1573 80.2144 31.9147 80.2038 31.648H81.1478C81.1638 31.8347 81.2518 31.992 81.4118 32.12C81.5771 32.2427 81.7824 32.304 82.0278 32.304C82.2838 32.304 82.4811 32.256 82.6198 32.16C82.7638 32.0587 82.8358 31.9307 82.8358 31.776C82.8358 31.6107 82.7558 31.488 82.5958 31.408C82.4411 31.328 82.1931 31.24 81.8518 31.144C81.5211 31.0533 81.2518 30.9653 81.0438 30.88C80.8358 30.7947 80.6544 30.664 80.4998 30.488C80.3504 30.312 80.2758 30.08 80.2758 29.792C80.2758 29.5573 80.3451 29.344 80.4838 29.152C80.6224 28.9547 80.8198 28.8 81.0758 28.688C81.3371 28.576 81.6358 28.52 81.9718 28.52C82.4731 28.52 82.8758 28.648 83.1798 28.904C83.4891 29.1547 83.6544 29.4987 83.6758 29.936H82.7638C82.7478 29.7387 82.6678 29.5813 82.5238 29.464C82.3798 29.3467 82.1851 29.288 81.9398 29.288C81.6998 29.288 81.5158 29.3333 81.3878 29.424C81.2598 29.5147 81.1958 29.6347 81.1958 29.784C81.1958 29.9013 81.2384 30 81.3238 30.08C81.4091 30.16 81.5131 30.224 81.6358 30.272C81.7584 30.3147 81.9398 30.3707 82.1798 30.44C82.4998 30.5253 82.7611 30.6133 82.9638 30.704C83.1718 30.7893 83.3504 30.9173 83.4998 31.088C83.6491 31.2587 83.7264 31.4853 83.7318 31.768C83.7318 32.0187 83.6624 32.2427 83.5238 32.44C83.3851 32.6373 83.1878 32.792 82.9318 32.904C82.6811 33.016 82.3851 33.072 82.0438 33.072ZM85.7812 29.336V31.776C85.7812 31.9413 85.8185 32.0613 85.8932 32.136C85.9732 32.2053 86.1065 32.24 86.2932 32.24H86.8532V33H86.1332C85.7225 33 85.4079 32.904 85.1892 32.712C84.9705 32.52 84.8612 32.208 84.8612 31.776V29.336H84.3412V28.592H84.8612V27.496H85.7812V28.592H86.8532V29.336H85.7812ZM91.7338 30.688C91.7338 30.8533 91.7231 31.0027 91.7018 31.136H88.3338C88.3604 31.488 88.4911 31.7707 88.7258 31.984C88.9604 32.1973 89.2484 32.304 89.5898 32.304C90.0804 32.304 90.4271 32.0987 90.6298 31.688H91.6137C91.4804 32.0933 91.2378 32.4267 90.8858 32.688C90.5391 32.944 90.1071 33.072 89.5898 33.072C89.1684 33.072 88.7898 32.9787 88.4538 32.792C88.1231 32.6 87.8618 32.3333 87.6698 31.992C87.4831 31.6453 87.3898 31.2453 87.3898 30.792C87.3898 30.3387 87.4804 29.9413 87.6618 29.6C87.8484 29.2533 88.1071 28.9867 88.4378 28.8C88.7738 28.6133 89.1578 28.52 89.5898 28.52C90.0058 28.52 90.3764 28.6107 90.7018 28.792C91.0271 28.9733 91.2804 29.2293 91.4618 29.56C91.6431 29.8853 91.7338 30.2613 91.7338 30.688ZM90.7818 30.4C90.7764 30.064 90.6564 29.7947 90.4218 29.592C90.1871 29.3893 89.8964 29.288 89.5498 29.288C89.2351 29.288 88.9658 29.3893 88.7418 29.592C88.5178 29.7893 88.3844 30.0587 88.3418 30.4H90.7818ZM97.9673 28.52C98.3139 28.52 98.6233 28.592 98.8953 28.736C99.1726 28.88 99.3886 29.0933 99.5433 29.376C99.7033 29.6587 99.7833 30 99.7833 30.4V33H98.8793V30.536C98.8793 30.1413 98.7806 29.84 98.5833 29.632C98.3859 29.4187 98.1166 29.312 97.7753 29.312C97.4339 29.312 97.1619 29.4187 96.9593 29.632C96.7619 29.84 96.6633 30.1413 96.6633 30.536V33H95.7593V30.536C95.7593 30.1413 95.6606 29.84 95.4633 29.632C95.2659 29.4187 94.9966 29.312 94.6553 29.312C94.3139 29.312 94.0419 29.4187 93.8393 29.632C93.6419 29.84 93.5433 30.1413 93.5433 30.536V33H92.6313V28.592H93.5433V29.096C93.6926 28.9147 93.8819 28.7733 94.1113 28.672C94.3406 28.5707 94.5859 28.52 94.8473 28.52C95.1993 28.52 95.5139 28.5947 95.7913 28.744C96.0686 28.8933 96.2819 29.1093 96.4313 29.392C96.5646 29.1253 96.7726 28.9147 97.0553 28.76C97.3379 28.6 97.6419 28.52 97.9673 28.52Z" fill="#cbd5e1"/>
<path d="M37.984 16.016H33.792L33.12 18H30.256L34.32 6.768H37.488L41.552 18H38.656L37.984 16.016ZM37.28 13.904L35.888 9.792L34.512 13.904H37.28ZM46.9969 6.768C48.1809 6.768 49.2155 7.00267 50.1009 7.472C50.9862 7.94133 51.6689 8.60267 52.1489 9.456C52.6395 10.2987 52.8849 11.2747 52.8849 12.384C52.8849 13.4827 52.6395 14.4587 52.1489 15.312C51.6689 16.1653 50.9809 16.8267 50.0849 17.296C49.1995 17.7653 48.1702 18 46.9969 18H42.7889V6.768H46.9969ZM46.8209 15.632C47.8555 15.632 48.6609 15.3493 49.2369 14.784C49.8129 14.2187 50.1009 13.4187 50.1009 12.384C50.1009 11.3493 49.8129 10.544 49.2369 9.968C48.6609 9.392 47.8555 9.104 46.8209 9.104H45.5249V15.632H46.8209ZM61.2939 11.248V13.52H54.2539V11.248H61.2939ZM66.4311 8.96V11.232H70.0951V13.344H66.4311V15.808H70.5751V18H63.6951V6.768H70.5751V8.96H66.4311ZM79.3434 16.016H75.1514L74.4794 18H71.6154L75.6794 6.768H78.8474L82.9114 18H80.0154L79.3434 16.016ZM78.6394 13.904L77.2474 9.792L75.8714 13.904H78.6394ZM88.2123 18.112C87.3909 18.112 86.6549 17.9787 86.0043 17.712C85.3536 17.4453 84.8309 17.0507 84.4363 16.528C84.0523 16.0053 83.8496 15.376 83.8283 14.64H86.7403C86.7829 15.056 86.9269 15.376 87.1723 15.6C87.4176 15.8133 87.7376 15.92 88.1323 15.92C88.5376 15.92 88.8576 15.8293 89.0923 15.648C89.3269 15.456 89.4443 15.1947 89.4443 14.864C89.4443 14.5867 89.3483 14.3573 89.1563 14.176C88.9749 13.9947 88.7456 13.8453 88.4683 13.728C88.2016 13.6107 87.8176 13.4773 87.3163 13.328C86.5909 13.104 85.9989 12.88 85.5403 12.656C85.0816 12.432 84.6869 12.1013 84.3563 11.664C84.0256 11.2267 83.8603 10.656 83.8603 9.952C83.8603 8.90667 84.2389 8.09067 84.9963 7.504C85.7536 6.90667 86.7403 6.608 87.9563 6.608C89.1936 6.608 90.1909 6.90667 90.9483 7.504C91.7056 8.09067 92.1109 8.912 92.1643 9.968H89.2043C89.1829 9.60533 89.0496 9.32267 88.8043 9.12C88.5589 8.90667 88.2443 8.8 87.8602 8.8C87.5296 8.8 87.2629 8.89067 87.0603 9.072C86.8576 9.24267 86.7563 9.49333 86.7563 9.824C86.7563 10.1867 86.9269 10.4693 87.2682 10.672C87.6096 10.8747 88.1429 11.0933 88.8683 11.328C89.5936 11.5733 90.1803 11.808 90.6283 12.032C91.0869 12.256 91.4816 12.5813 91.8123 13.008C92.1429 13.4347 92.3083 13.984 92.3083 14.656C92.3083 15.296 92.1429 15.8773 91.8123 16.4C91.4923 16.9227 91.0229 17.3387 90.4043 17.648C89.7856 17.9573 89.0549 18.112 88.2123 18.112ZM96.728 8.96V11.232H100.392V13.344H96.728V15.808H100.872V18H93.992V6.768H100.872V8.96H96.728Z" fill="#C55A11"/>
<path d="M9 6H5V10H7V8H9M19 10H17V12H15V14H19M21 16H3V4H21M21 2H3C1.89 2 1 2.89 1 4V16C1 16.5304 1.21071 17.0391 1.58579 17.4142C1.96086 17.7893 2.46957 18 3 18H10V20H8V22H16V20H14V18H21C21.5304 18 22.0391 17.7893 22.4142 17.4142C22.7893 17.0391 23 16.5304 23 16V4C23 2.89 22.1 2 21 2Z" fill="#C55A11"/>
</svg>
